<svg width="335" height="335" viewBox="0 0 335 335" fill="none" xmlns="http://www.w3.org/2000/svg">
<path d="M0 279.631C4.60819 274.984 9.22184 270.343 13.8191 265.686C100.747 177.683 187.674 89.685 274.569 1.65442C275.711 0.496915 276.803 6.10352e-05 278.44 6.10352e-05C296.671 0.0601204 314.902 0.0382806 333.127 0.0382806H334.962C334.962 0.573355 334.962 1.04837 334.962 1.52338C334.962 21.1191 334.962 40.7094 334.978 60.3051C334.978 61.1896 334.727 61.812 334.105 62.4399C244.638 152.982 155.188 243.535 65.7322 334.088C65.4483 334.378 65.1862 334.694 64.9132 334.995H0C0 316.535 0 298.08 0 279.62V279.631Z" fill="white"/>
<path d="M0 0.0382385H156.498C156.045 0.546013 155.772 0.879069 155.472 1.18483C103.881 53.4146 52.2898 105.644 0.698872 157.874C0.475015 158.098 0.234777 158.305 0 158.518C0 105.693 0 52.8631 0 0.0382385Z" fill="white"/>
<path d="M184.666 335C185.015 334.59 185.338 334.159 185.714 333.777C232.08 286.827 278.451 239.871 324.834 192.938C328.12 189.613 331.555 186.43 334.967 183.137V335H184.666Z" fill="white"/>
</svg>
